#!OML:ASF H:\ManfredETheater\Project 1\Capture day 1\Session 1\subject.ASF
:FULLY-SPECIFIED
:DEGREES
416
root 1.75319 16.2615 -30.5669 -161.644 -10.5243 168.433
lowerback 17.9555 -1.63004 -6.301
upperback 0.529682 -4.10519 -3.06772
thorax -9.3239 -1.8995 1.30165
lowerneck -21.2071 -3.62564 -4.68537
upperneck 2.57098 -4.59113 5.76847
head 4.34605 -2.15291 2.10355
rclavicle 2.52581e-014 1.21693e-014
rhumerus -48.0137 -1.40488 -88.7885
rradius 67.5011
rwrist -20.1628
rhand -31.5822 14.1532
rfingers 7.12502
rthumb -4.8453 -15.7714
lclavicle 2.52581e-014 1.21693e-014
lhumerus -22.595 -11.4376 94.7811
lradius 87.4306
lwrist 10.605
lhand -28.654 -9.8013
lfingers 7.12502
lthumb -2.01753 20.1689
rfemur -45.1812 -18.8521 12.1233
rtibia 102.258
rfoot -9.68498 -5.70608
rtoes 2.33103
lfemur -37.4825 -4.96472 -34.4986
ltibia 60.5551
lfoot -31.8546 3.05134
ltoes -5.09287
417
root 1.76514 16.2588 -31.161 -161.331 -10.8308 168.108
lowerback 17.6568 -1.79906 -6.60102
upperback 0.385621 -4.35736 -3.02845
thorax -9.27572 -2.00067 1.56108
lowerneck -21.4535 -3.74394 -4.77847
upperneck 3.00783 -4.72183 5.89635
head 4.53279 -2.19316 2.14029
rclavicle 1.66917e-014 8.74653e-015
rhumerus -51.0329 -2.22401 -87.891
rradius 65.3546
rwrist -20.2173
rhand -32.0046 14.2345
rfingers 7.12502
rthumb -5.25314 -15.6804
lclavicle 1.66917e-014 8.74653e-015
lhumerus -18.7591 -12.1255 94.8875
lradius 89.357
lwrist 10.7593
lhand -28.345 -9.48683
lfingers 7.12502
lthumb -1.71912 20.486
rfemur -49.6657 -18.7893 12.2125
rtibia 102.195
rfoot -10.6259 -5.85858
rtoes 1.68114
lfemur -34.6076 -5.16611 -34.3206
ltibia 59.2482
lfoot -33.0347 3.60002
ltoes -7.05719
418
root 1.77845 16.2758 -31.7695 -161.01 -11.0942 167.828
lowerback 17.266 -1.98998 -6.93476
upperback 0.226132 -4.62683 -2.93887
thorax -9.18081 -2.10739 1.89016
lowerneck -21.7387 -3.78848 -4.80268
upperneck 3.48511 -4.75971 5.89523
head 4.72822 -2.19362 2.13437
rclavicle 2.98053e-014 -3.0998e-014
rhumerus -54.1967 -2.52663 -87.0796
rradius 64.0527
rwrist -20.1366
rhand -32.2683 14.3192
rfingers 7.12502
rthumb -5.50775 -15.5892
lclavicle 2.98053e-014 -3.0998e-014
lhumerus -15.252 -12.6946 94.8645
lradius 91.9312
lwrist 11.41
lhand -28.0417 -9.19818
lfingers 7.12502
lthumb -1.42615 20.7768
rfemur -53.8036 -18.5211 12.3102
rtibia 101.336
rfoot -11.3251 -6.13152
rtoes 1.11268
lfemur -31.5221 -5.31081 -34.0846
ltibia 57.5085
lfoot -33.7958 4.08458
ltoes -9.41481
419
root 1.79205 16.3133 -32.3914 -160.658 -11.338 167.585
lowerback 16.7924 -2.22681 -7.27998
upperback 0.0360599 -4.9404 -2.79278
thorax -9.058 -2.23214 2.28817
lowerneck -22.0351 -3.74128 -4.75598
upperneck 3.95897 -4.68025 5.75031
head 4.91255 -2.14572 2.08425
rclavicle 3.04886e-014 3.39673e-014
rhumerus -57.5006 -2.38145 -86.3906
rradius 63.6218
rwrist -20.0347
rhand -32.394 14.4136
rfingers 7.12502
rthumb -5.62913 -15.4916
lclavicle 3.04886e-014 3.39673e-014
lhumerus -12.0126 -13.1534 94.6322
lradius 95.0308
lwrist 12.5644
lhand -27.7453 -8.93684
lfingers 7.12502
lthumb -1.13995 21.0399
rfemur -57.5394 -18.121 12.3815
rtibia 99.7016
rfoot -11.8372 -6.47856
rtoes 0.514001
lfemur -28.2963 -5.47109 -33.7935
ltibia 55.3761
lfoot -34.0234 4.47405
ltoes -12.1567
420
root 1.80527 16.3673 -33.024 -160.253 -11.5634 167.398
lowerback 16.2364 -2.51937 -7.60193
upperback -0.195012 -5.30326 -2.58278
thorax -8.91807 -2.37802 2.74264
lowerneck -22.3334 -3.59701 -4.65354
upperneck 4.40576 -4.47403 5.48014
head 5.07789 -2.0457 1.99974
rclavicle 5.38706e-014 -2.03754e-015
rhumerus -60.914 -1.88575 -85.8209
rradius 63.9976
rwrist -19.9902
rhand -32.4507 14.5499
rfingers 7.12502
rthumb -5.6839 -15.3538
lclavicle 5.38706e-014 -2.03754e-015
lhumerus -8.9639 -13.4719 94.1134
lradius 98.5039
lwrist 14.0732
lhand -27.4805 -8.69262
lfingers 7.12502
lthumb -0.884185 21.2853
rfemur -60.8766 -17.6252 12.4341
rtibia 97.3496
rfoot -12.1763 -6.85746
rtoes -0.160156
lfemur -25.0476 -5.68847 -33.4323
ltibia 52.9455
lfoot -33.6415 4.72011
ltoes -15.2626
421
root 1.81796 16.4331 -33.6657 -159.834 -11.7849 167.28
lowerback 15.6417 -2.86661 -7.87319
upperback -0.455021 -5.71434 -2.30736
thorax -8.77223 -2.54621 3.23975
lowerneck -22.6201 -3.3589 -4.50163
upperneck 4.81188 -4.14536 5.1028
head 5.22006 -1.89571 1.88745
rclavicle -8.57259e-015 1.16786e-014
rhumerus -64.3846 -1.15147 -85.3336
rradius 65.0461
rwrist -20.079
rhand -32.4584 14.6977
rfingers 7.12502
rthumb -5.69136 -15.2059
lclavicle -8.57259e-015 1.16786e-014
lhumerus -6.05496 -13.6117 93.2524
lradius 102.189
lwrist 15.6496
lhand -27.2491 -8.44113
lfingers 7.12502
lthumb -0.66072 21.5376
rfemur -63.7536 -17.0835 12.4668
rtibia 94.3468
rfoot -12.3597 -7.23614
rtoes -0.96167
lfemur -21.8159 -5.99401 -32.9899
ltibia 50.3329
lfoot -32.6161 4.75398
ltoes -18.5987
422
root 1.83039 16.5074 -34.3153 -159.432 -12.0013 167.225
lowerback 15.0251 -3.25701 -8.0869
upperback -0.720196 -6.16297 -1.98287
thorax -8.60596 -2.73509 3.75441
lowerneck -22.8836 -3.04411 -4.3116
upperneck 5.16545 -3.71886 4.65884
head 5.33759 -1.70593 1.75954
rclavicle -9.86469e-014 8.74653e-015
rhumerus -67.8335 -0.285983 -84.8913
rradius 66.5771
rwrist -20.3163
rhand -32.4362 14.8501
rfingers 7.12502
rthumb -5.66987 -15.0541
lclavicle -9.86469e-014 8.74653e-015
lhumerus -3.25142 -13.5514 92.0137
lradius 105.954
lwrist 17.0295
lhand -27.0864 -8.11329
lfingers 7.12502
lthumb -0.503554 21.8659
rfemur -66.134 -16.5284 12.4649
rtibia 90.7641
rfoot -12.3473 -7.56194
rtoes -1.83573
lfemur -18.6391 -6.38765 -32.4793
ltibia 47.6522
lfoot -30.9416 4.4928
ltoes -21.9284
423
root 1.84362 16.5881 -34.9724 -159.086 -12.2019 167.235
lowerback 14.4051 -3.67435 -8.24872
upperback -0.96086 -6.63353 -1.62305
thorax -8.39941 -2.94047 4.27057
lowerneck -23.1469 -2.67565 -4.1141
upperneck 5.47719 -3.22269 4.2008
head 5.44163 -1.48664 1.63427
rclavicle -2.5842e-015 4.09496e-014
rhumerus -71.1651 0.6327 -84.4596
rradius 68.3795
rwrist -20.6571
rhand -32.4056 15.0212
rfingers 7.12502
rthumb -5.64038 -14.8837
lclavicle -2.5842e-015 4.09496e-014
lhumerus -0.531809 -13.2339 90.3934
lradius 109.681
lwrist 18.0308
lhand -26.9931 -7.73154
lfingers 7.12502
lthumb -0.413413 22.2478
rfemur -67.983 -15.9574 12.4265
rtibia 86.6674
rfoot -12.0695 -7.80923
rtoes -2.90875
lfemur -15.5372 -6.84181 -31.9035
ltibia 44.9853
lfoot -28.6078 3.8636
ltoes -25.0829
424
root 1.85745 16.6739 -35.6368 -158.841 -12.3592 167.296
lowerback 13.8274 -4.09679 -8.36323
upperback -1.16615 -7.10775 -1.25603
thorax -8.17269 -3.15433 4.76045
lowerneck -23.4096 -2.27317 -3.9137
upperneck 5.76956 -2.68385 3.754
head 5.54169 -1.2483 1.51753
rclavicle 4.55714e-014 -4.17448e-015
rhumerus -74.3295 1.53601 -84.0043
rradius 70.2818
rwrist -21.0282
rhand -32.3622 15.1551
rfingers 7.12502
rthumb -5.59847 -14.7509
lclavicle 4.55714e-014 -4.17448e-015
lhumerus 2.05625 -12.6159 88.4286
lradius 113.305
lwrist 18.6505
lhand -26.9521 -7.30841
lfingers 7.12502
lthumb -0.373802 22.671
rfemur -69.2674 -15.3628 12.3228
rtibia 82.1226
rfoot -11.4235 -7.93547
rtoes -4.11854
lfemur -12.4972 -7.29924 -31.2975
ltibia 42.3749
lfoot -25.5567 2.85075
ltoes -27.9286
425
root 1.8726 16.7643 -36.3089 -158.735 -12.4524 167.41
lowerback 13.2838 -4.50322 -8.43855
upperback -1.29847 -7.55949 -0.90226
thorax -7.88696 -3.36828 5.19976
lowerneck -23.6984 -2.27365 -3.54463
upperneck 6.076 -2.03091 3.30657
head 5.65318 -0.656242 1.4164
rclavicle 1.36664e-014 4.77083e-015
rhumerus -77.2526 2.38071 -83.5218
rradius 72.131
rwrist -21.3299
rhand -32.3716 15.3468
rfingers 7.12502
rthumb -5.6075 -14.559
lclavicle 1.36664e-014 4.77083e-015
lhumerus 4.49885 -11.6686 86.1735
lradius 116.779
lwrist 19.0184
lhand -26.9539 -6.88436
lfingers 7.12502
lthumb -0.375549 23.095
rfemur -69.9747 -14.7235 12.1492
rtibia 77.2018
rfoot -10.3535 -7.93998
rtoes -5.43115
lfemur -9.49886 -7.69189 -30.6748
ltibia 39.8335
lfoot -21.7187 1.42512
ltoes -30.1977
426
root 1.88891 16.8574 -36.9887 -158.793 -12.4518 167.557
lowerback 12.7952 -4.86993 -8.49259
upperback -1.35264 -7.96567 -0.58939
thorax -7.55625 -3.57059 5.56833
lowerneck -23.9949 -1.86846 -3.39064
upperneck 6.35891 -1.50079 2.96419
head 5.76549 -0.427022 1.34113
rclavicle 5.90887e-014 1.98785e-015
rhumerus -79.9251 3.12712 -83.0001
rradius 73.8674
rwrist -21.4965
rhand -32.3872 15.5004
rfingers 7.12502
rthumb -5.6226 -14.405
lclavicle 5.90887e-014 1.98785e-015
lhumerus 6.7608 -10.3764 83.7119
lradius 120.06
lwrist 19.351
lhand -26.9553 -6.506
lfingers 7.12502
lthumb -0.376908 23.4734
rfemur -70.1236 -14.0334 11.8918
rtibia 71.9988
rfoot -8.85437 -7.83802
rtoes -6.78941
lfemur -6.53516 -7.96323 -30.0763
ltibia 37.3884
lfoot -17.0418 -0.308979
ltoes -31.6786
